<svg width="50" height="50" viewBox="0 0 50 50" fill="none" xmlns="http://www.w3.org/2000/svg">
<g clip-path="url(#clip0_575_19)">
<path d="M48.4375 23.4375H46.875V17.1875C46.875 16.3587 46.5458 15.5638 45.9597 14.9778C45.3737 14.3917 44.5788 14.0625 43.75 14.0625H40.625V12.5C40.625 11.6712 40.2958 10.8763 39.7097 10.2903C39.1237 9.70424 38.3288 9.375 37.5 9.375H32.8125C31.9837 9.375 31.1888 9.70424 30.6028 10.2903C30.0167 10.8763 29.6875 11.6712 29.6875 12.5V23.4375H20.3125V12.5C20.3125 11.6712 19.9833 10.8763 19.3972 10.2903C18.8112 9.70424 18.0163 9.375 17.1875 9.375H12.5C11.6712 9.375 10.8763 9.70424 10.2903 10.2903C9.70424 10.8763 9.375 11.6712 9.375 12.5V14.0625H6.25C5.4212 14.0625 4.62634 14.3917 4.04029 14.9778C3.45424 15.5638 3.125 16.3587 3.125 17.1875V23.4375H1.5625C1.1481 23.4375 0.750671 23.6021 0.457646 23.8951C0.16462 24.1882 0 24.5856 0 25C0 25.4144 0.16462 25.8118 0.457646 26.1049C0.750671 26.3979 1.1481 26.5625 1.5625 26.5625H3.125V32.8125C3.125 33.6413 3.45424 34.4362 4.04029 35.0222C4.62634 35.6083 5.4212 35.9375 6.25 35.9375H9.375V37.5C9.375 38.3288 9.70424 39.1237 10.2903 39.7097C10.8763 40.2958 11.6712 40.625 12.5 40.625H17.1875C18.0163 40.625 18.8112 40.2958 19.3972 39.7097C19.9833 39.1237 20.3125 38.3288 20.3125 37.5V26.5625H29.6875V37.5C29.6875 38.3288 30.0167 39.1237 30.6028 39.7097C31.1888 40.2958 31.9837 40.625 32.8125 40.625H37.5C38.3288 40.625 39.1237 40.2958 39.7097 39.7097C40.2958 39.1237 40.625 38.3288 40.625 37.5V35.9375H43.75C44.5788 35.9375 45.3737 35.6083 45.9597 35.0222C46.5458 34.4362 46.875 33.6413 46.875 32.8125V26.5625H48.4375C48.8519 26.5625 49.2493 26.3979 49.5424 26.1049C49.8354 25.8118 50 25.4144 50 25C50 24.5856 49.8354 24.1882 49.5424 23.8951C49.2493 23.6021 48.8519 23.4375 48.4375 23.4375ZM6.25 32.8125V17.1875H9.375V32.8125H6.25ZM17.1875 37.5H12.5V12.5H17.1875V37.5ZM37.5 37.5H32.8125V12.5H37.5V34.3398C37.5 34.3516 37.5 34.3633 37.5 34.375C37.5 34.3867 37.5 34.3984 37.5 34.4102V37.5ZM43.75 32.8125H40.625V17.1875H43.75V32.8125Z" fill="#1F3C88"/>
</g>
<defs>
<clipPath id="clip0_575_19">
<rect width="50" height="50" fill="white"/>
</clipPath>
</defs>
</svg>
