<svg width="22" height="22" viewBox="0 0 22 22" fill="none" xmlns="http://www.w3.org/2000/svg">
<path d="M19.7363 6.6738L8.7363 17.6738C8.67245 17.7377 8.59663 17.7884 8.51317 17.823C8.4297 17.8576 8.34024 17.8754 8.24989 17.8754C8.15955 17.8754 8.07008 17.8576 7.98662 17.823C7.90316 17.7884 7.82734 17.7377 7.76349 17.6738L2.95099 12.8613C2.82198 12.7323 2.74951 12.5573 2.74951 12.3749C2.74951 12.1925 2.82198 12.0175 2.95099 11.8885C3.07999 11.7595 3.25496 11.687 3.43739 11.687C3.61983 11.687 3.7948 11.7595 3.9238 11.8885L8.24989 16.2154L18.7635 5.70099C18.8925 5.57198 19.0675 5.49951 19.2499 5.49951C19.4323 5.49951 19.6073 5.57198 19.7363 5.70099C19.8653 5.82999 19.9378 6.00496 19.9378 6.18739C19.9378 6.36983 19.8653 6.5448 19.7363 6.6738Z" fill="#1F3C88"/>
</svg>
