<svg width="60" height="60" viewBox="0 0 60 60" fill="none" xmlns="http://www.w3.org/2000/svg">
<path d="M33.9475 60H25.8V36H33.9475V60ZM33.9475 24H25.8V0H33.9475V24Z" fill="white"/>
<rect x="13.5791" y="25.9998" width="32.5896" height="7.99995" fill="url(#paint0_linear_177_1006)"/>
<rect width="2.58523" height="24.7498" rx="1.14899" transform="matrix(-1 0 0 1 12.9263 16.9999)" fill="url(#paint1_linear_177_1006)"/>
<rect width="2.58523" height="20.9422" rx="1.14899" transform="matrix(-1 0 0 1 9.47949 18.9037)" fill="url(#paint2_linear_177_1006)"/>
<rect width="2.58523" height="15.2307" rx="1.14899" transform="matrix(-1 0 0 1 6.03223 21.7595)" fill="url(#paint3_linear_177_1006)"/>
<rect width="2.58523" height="7.61533" rx="1.14899" transform="matrix(-1 0 0 1 2.58533 25.5671)" fill="url(#paint4_linear_177_1006)"/>
<rect width="2.58523" height="24.7498" rx="1.14899" transform="matrix(1 0 0 -1 47.0737 42.7498)" fill="url(#paint5_linear_177_1006)"/>
<rect width="2.58523" height="20.9422" rx="1.14899" transform="matrix(1 0 0 -1 50.5205 40.8459)" fill="url(#paint6_linear_177_1006)"/>
<rect width="2.58523" height="15.2307" rx="1.14899" transform="matrix(1 0 0 -1 53.9678 37.9901)" fill="url(#paint7_linear_177_1006)"/>
<rect width="2.58523" height="7.61533" rx="1.14899" transform="matrix(1 0 0 -1 57.4146 34.1824)" fill="url(#paint8_linear_177_1006)"/>
<defs>
<linearGradient id="paint0_linear_177_1006" x1="29.8739" y1="30.1665" x2="29.8739" y2="29.9998" gradientUnits="userSpaceOnUse">
<stop stop-color="#008999"/>
<stop offset="1" stop-color="#00E5FF"/>
</linearGradient>
<linearGradient id="paint1_linear_177_1006" x1="1.29262" y1="12.8905" x2="1.29262" y2="12.3749" gradientUnits="userSpaceOnUse">
<stop stop-color="#008999"/>
<stop offset="1" stop-color="#00E5FF"/>
</linearGradient>
<linearGradient id="paint2_linear_177_1006" x1="1.29262" y1="10.9074" x2="1.29262" y2="10.4711" gradientUnits="userSpaceOnUse">
<stop stop-color="#008999"/>
<stop offset="1" stop-color="#00E5FF"/>
</linearGradient>
<linearGradient id="paint3_linear_177_1006" x1="1.29262" y1="7.93264" x2="1.29262" y2="7.61533" gradientUnits="userSpaceOnUse">
<stop stop-color="#008999"/>
<stop offset="1" stop-color="#00E5FF"/>
</linearGradient>
<linearGradient id="paint4_linear_177_1006" x1="1.29262" y1="3.96632" x2="1.29262" y2="3.80767" gradientUnits="userSpaceOnUse">
<stop stop-color="#008999"/>
<stop offset="1" stop-color="#00E5FF"/>
</linearGradient>
<linearGradient id="paint5_linear_177_1006" x1="1.29262" y1="12.8905" x2="1.29262" y2="12.3749" gradientUnits="userSpaceOnUse">
<stop stop-color="#008999"/>
<stop offset="1" stop-color="#00E5FF"/>
</linearGradient>
<linearGradient id="paint6_linear_177_1006" x1="1.29262" y1="10.9074" x2="1.29262" y2="10.4711" gradientUnits="userSpaceOnUse">
<stop stop-color="#008999"/>
<stop offset="1" stop-color="#00E5FF"/>
</linearGradient>
<linearGradient id="paint7_linear_177_1006" x1="1.29262" y1="7.93264" x2="1.29262" y2="7.61533" gradientUnits="userSpaceOnUse">
<stop stop-color="#008999"/>
<stop offset="1" stop-color="#00E5FF"/>
</linearGradient>
<linearGradient id="paint8_linear_177_1006" x1="1.29262" y1="3.96632" x2="1.29262" y2="3.80767" gradientUnits="userSpaceOnUse">
<stop stop-color="#008999"/>
<stop offset="1" stop-color="#00E5FF"/>
</linearGradient>
</defs>
</svg>
