<svg width="50" height="50" viewBox="0 0 50 50" fill="none" xmlns="http://www.w3.org/2000/svg">
<path d="M42.1464 23.0801C42.0873 22.8296 41.9672 22.5977 41.7968 22.4048C41.6264 22.212 41.4111 22.0642 41.1699 21.9746L29.9179 17.7539L32.7812 3.43163C32.846 3.09886 32.8009 2.75402 32.6525 2.44917C32.5042 2.14431 32.2607 1.89598 31.9589 1.74163C31.657 1.58728 31.3132 1.5353 30.9792 1.59353C30.6452 1.65177 30.3392 1.81705 30.1074 2.06444L8.23236 25.5019C8.0547 25.6892 7.92617 25.9175 7.85827 26.1665C7.79037 26.4155 7.7852 26.6774 7.84324 26.9289C7.90127 27.1804 8.0207 27.4136 8.19085 27.6076C8.36099 27.8017 8.57657 27.9506 8.8183 28.041L20.0742 32.2617L17.2187 46.5684C17.1539 46.9011 17.199 47.246 17.3474 47.5508C17.4957 47.8557 17.7392 48.104 18.041 48.2583C18.3429 48.4127 18.6867 48.4647 19.0207 48.4064C19.3547 48.3482 19.6607 48.1829 19.8925 47.9355L41.7675 24.498C41.942 24.3108 42.0678 24.0836 42.1338 23.8363C42.1999 23.5891 42.2042 23.3294 42.1464 23.0801ZM21.3613 41.7969L23.4062 31.5664C23.4794 31.2036 23.4214 30.8265 23.2425 30.5025C23.0637 30.1784 22.7756 29.9284 22.4296 29.7969L12.1093 25.9199L28.6367 8.21288L26.5937 18.4433C26.5205 18.8062 26.5785 19.1832 26.7573 19.5073C26.9362 19.8313 27.2243 20.0814 27.5703 20.2129L37.8828 24.0801L21.3613 41.7969Z" fill="#1F3C88"/>
</svg>
