<svg width="50" height="50" viewBox="0 0 50 50" fill="none" xmlns="http://www.w3.org/2000/svg">
<path d="M43.0214 30.9649C42.7986 30.8243 42.5439 30.7424 42.281 30.7267C42.0181 30.711 41.7554 30.762 41.5175 30.875C40.9221 31.1566 40.2652 31.2831 39.6079 31.2427C38.9505 31.2023 38.314 30.9963 37.7576 30.644C37.2012 30.2916 36.7429 29.8043 36.4253 29.2273C36.1077 28.6503 35.9412 28.0024 35.9412 27.3438C35.9412 26.6852 36.1077 26.0373 36.4253 25.4603C36.7429 24.8833 37.2012 24.396 37.7576 24.0436C38.314 23.6912 38.9505 23.4853 39.6079 23.4449C40.2652 23.4045 40.9221 23.5309 41.5175 23.8125C41.7557 23.9256 42.0186 23.9765 42.2818 23.9606C42.545 23.9446 42.7999 23.8624 43.0227 23.7214C43.2455 23.5805 43.4291 23.3854 43.5562 23.1545C43.6834 22.9235 43.75 22.6641 43.7499 22.4004V14.0625C43.7499 13.2337 43.4207 12.4389 42.8346 11.8528C42.2486 11.2668 41.4537 10.9375 40.6249 10.9375H33.5507C33.5798 10.6781 33.5941 10.4173 33.5937 10.1563C33.5922 9.19597 33.3947 8.24607 33.0132 7.36481C32.6317 6.48354 32.0742 5.68947 31.3749 5.03128C30.4067 4.12192 29.2007 3.50543 27.8966 3.25319C26.5924 3.00095 25.2435 3.12327 24.0061 3.606C22.7686 4.08873 21.6932 4.91211 20.9043 5.98081C20.1155 7.0495 19.6455 8.31978 19.5488 9.64456C19.5187 10.0755 19.5279 10.5082 19.5761 10.9375H12.4999C11.6711 10.9375 10.8763 11.2668 10.2902 11.8528C9.70417 12.4389 9.37493 13.2337 9.37493 14.0625V20.3555C9.11554 20.3264 8.8547 20.3121 8.59368 20.3125C7.63339 20.3141 6.68353 20.5117 5.80228 20.8932C4.92103 21.2747 4.12695 21.8321 3.46868 22.5313C2.80569 23.2316 2.29518 24.0618 1.96942 24.9695C1.64366 25.8772 1.50973 26.8426 1.5761 27.8047C1.68807 29.4988 2.40789 31.0955 3.60319 32.3012C4.79849 33.5069 6.38891 34.2406 8.08196 34.3672C8.51287 34.3982 8.94572 34.389 9.37493 34.3399V40.625C9.37493 41.4538 9.70417 42.2487 10.2902 42.8347C10.8763 43.4208 11.6711 43.75 12.4999 43.75H40.6249C41.4537 43.75 42.2486 43.4208 42.8346 42.8347C43.4207 42.2487 43.7499 41.4538 43.7499 40.625V32.2871C43.7501 32.0231 43.6834 31.7634 43.556 31.5322C43.4286 31.301 43.2447 31.1058 43.0214 30.9649ZM40.6249 40.625H12.4999V32.2871C12.5 32.0235 12.4334 31.7641 12.3062 31.5331C12.1791 31.3021 11.9955 31.1071 11.7727 30.9661C11.5499 30.8252 11.295 30.7429 11.0318 30.727C10.7686 30.711 10.5057 30.762 10.2675 30.875C9.67213 31.1566 9.01522 31.2831 8.35785 31.2427C7.70049 31.2023 7.06401 30.9963 6.50758 30.644C5.95116 30.2916 5.49287 29.8043 5.1753 29.2273C4.85773 28.6503 4.69121 28.0024 4.69121 27.3438C4.69121 26.6852 4.85773 26.0373 5.1753 25.4603C5.49287 24.8833 5.95116 24.396 6.50758 24.0436C7.06401 23.6912 7.70049 23.4853 8.35785 23.4449C9.01522 23.4045 9.67213 23.5309 10.2675 23.8125C10.5057 23.9256 10.7686 23.9765 11.0318 23.9606C11.295 23.9446 11.5499 23.8624 11.7727 23.7214C11.9955 23.5805 12.1791 23.3854 12.3062 23.1545C12.4334 22.9235 12.5 22.6641 12.4999 22.4004V14.0625H21.6191C21.8827 14.0626 22.1421 13.996 22.3731 13.8688C22.6041 13.7417 22.7991 13.5581 22.9401 13.3353C23.081 13.1125 23.1633 12.8576 23.1792 12.5944C23.1952 12.3312 23.1442 12.0683 23.0312 11.8301C22.7496 11.2347 22.6231 10.5778 22.6635 9.92045C22.7039 9.26308 22.9099 8.6266 23.2622 8.07018C23.6146 7.51376 24.1019 7.05546 24.6789 6.73789C25.2559 6.42033 25.9038 6.2538 26.5624 6.2538C27.221 6.2538 27.869 6.42033 28.4459 6.73789C29.0229 7.05546 29.5103 7.51376 29.8626 8.07018C30.215 8.6266 30.4209 9.26308 30.4613 9.92045C30.5017 10.5778 30.3753 11.2347 30.0937 11.8301C29.9806 12.0683 29.9297 12.3312 29.9456 12.5944C29.9616 12.8576 30.0438 13.1125 30.1848 13.3353C30.3257 13.5581 30.5208 13.7417 30.7517 13.8688C30.9827 13.996 31.2421 14.0626 31.5058 14.0625H40.6249V20.3574C40.1957 20.3083 39.7629 20.2991 39.332 20.3301C37.5134 20.4589 35.816 21.2889 34.5977 22.6452C33.3795 24.0015 32.7356 25.7779 32.802 27.5998C32.8684 29.4217 33.6398 31.1465 34.9535 32.4106C36.2673 33.6746 38.0206 34.3789 39.8437 34.375C40.1047 34.3755 40.3655 34.3611 40.6249 34.3321V40.625Z" fill="#1F3C88"/>
</svg>
