<svg width="30" height="30" viewBox="0 0 30 30" fill="none" xmlns="http://www.w3.org/2000/svg">
<path d="M21.8461 14.4902C21.4393 14.184 21.0022 13.9201 20.5418 13.7027C20.073 10.2 17.7293 9.09609 16.6629 8.77266C14.3449 8.06953 11.6813 8.91211 10.4695 10.7297C10.4012 10.8322 10.3537 10.9471 10.3298 11.068C10.3059 11.1888 10.3061 11.3132 10.3302 11.434C10.379 11.6779 10.5227 11.8925 10.7297 12.0305C10.9367 12.1685 11.19 12.2186 11.434 12.1698C11.5547 12.1456 11.6696 12.0979 11.7719 12.0294C11.8743 11.9608 11.9621 11.8728 12.0305 11.7703C12.777 10.65 14.6086 10.1109 16.1191 10.5668C17.2852 10.9184 18.0902 11.7738 18.4805 13.0277C17.8899 12.9153 17.2899 12.8592 16.6887 12.8602C15.0574 12.8602 13.5305 13.2809 12.3914 14.0437C11.0508 14.9496 10.3125 16.2891 10.3125 17.8125C10.3125 20.2242 12.1711 21.975 14.7316 21.975C15.4846 21.9699 16.2289 21.8136 16.9204 21.5155C17.6118 21.2174 18.2364 20.7834 18.757 20.2395C19.5117 19.4543 20.3977 18.0879 20.5863 15.8918C20.6309 15.9223 20.673 15.9539 20.7152 15.9855C21.9 16.8809 22.5 18.1266 22.5 19.6875C22.5 21.9562 20.1164 25.3125 15 25.3125C11.8676 25.3125 9.67031 24.2988 8.28047 22.2141C7.14023 20.5078 6.5625 18.0773 6.5625 15C6.5625 11.9227 7.14023 9.49219 8.28047 7.78594C9.67031 5.70117 11.8676 4.6875 15 4.6875C18.859 4.6875 21.3281 6.24023 22.5621 9.43594C22.6054 9.55215 22.6713 9.65863 22.7559 9.74921C22.8406 9.83978 22.9425 9.91265 23.0555 9.96361C23.1686 10.0146 23.2906 10.0426 23.4146 10.046C23.5385 10.0495 23.6619 10.0283 23.7777 9.98376C23.8934 9.93919 23.9991 9.87211 24.0887 9.7864C24.1783 9.70069 24.25 9.59805 24.2997 9.48443C24.3494 9.3708 24.376 9.24846 24.3781 9.12447C24.3801 9.00048 24.3576 8.87732 24.3117 8.76211C22.8141 4.87031 19.5938 2.8125 15 2.8125C11.25 2.8125 8.45977 4.13555 6.71953 6.74531C5.3707 8.76914 4.6875 11.5453 4.6875 15C4.6875 18.4547 5.3707 21.2309 6.71953 23.2547C8.45977 25.8645 11.25 27.1875 15 27.1875C18.5238 27.1875 20.7305 25.8422 21.9609 24.7148C23.4727 23.3297 24.375 21.4453 24.375 19.6875C24.375 17.5383 23.5008 15.7406 21.8461 14.4902ZM17.4059 18.9434C17.0604 19.3058 16.6457 19.5952 16.1863 19.7945C15.727 19.9937 15.2323 20.0988 14.7316 20.1035C13.4648 20.1035 12.1875 19.4004 12.1875 17.816C12.1875 16.3359 13.5938 14.7445 16.6887 14.7445C17.3856 14.7426 18.0794 14.8381 18.75 15.0281C18.75 16.6781 18.2813 18.0305 17.4059 18.9398V18.9434Z" fill="white"/>
</svg>
