<svg width="50" height="50" viewBox="0 0 50 50" fill="none" xmlns="http://www.w3.org/2000/svg">
<path d="M31.25 21.875H40.625C41.4538 21.875 42.2487 21.5458 42.8347 20.9597C43.4208 20.3737 43.75 19.5788 43.75 18.75V9.375C43.75 8.5462 43.4208 7.75134 42.8347 7.16529C42.2487 6.57924 41.4538 6.25 40.625 6.25H31.25C30.4212 6.25 29.6263 6.57924 29.0403 7.16529C28.4542 7.75134 28.125 8.5462 28.125 9.375V12.5H25C23.7568 12.5 22.5645 12.9939 21.6854 13.8729C20.8064 14.752 20.3125 15.9443 20.3125 17.1875V23.4375H14.0625V21.875C14.0625 21.0462 13.7333 20.2513 13.1472 19.6653C12.5612 19.0792 11.7663 18.75 10.9375 18.75H4.6875C3.8587 18.75 3.06384 19.0792 2.47779 19.6653C1.89174 20.2513 1.5625 21.0462 1.5625 21.875V28.125C1.5625 28.9538 1.89174 29.7487 2.47779 30.3347C3.06384 30.9208 3.8587 31.25 4.6875 31.25H10.9375C11.7663 31.25 12.5612 30.9208 13.1472 30.3347C13.7333 29.7487 14.0625 28.9538 14.0625 28.125V26.5625H20.3125V32.8125C20.3125 34.0557 20.8064 35.248 21.6854 36.1271C22.5645 37.0061 23.7568 37.5 25 37.5H28.125V40.625C28.125 41.4538 28.4542 42.2487 29.0403 42.8347C29.6263 43.4208 30.4212 43.75 31.25 43.75H40.625C41.4538 43.75 42.2487 43.4208 42.8347 42.8347C43.4208 42.2487 43.75 41.4538 43.75 40.625V31.25C43.75 30.4212 43.4208 29.6263 42.8347 29.0403C42.2487 28.4542 41.4538 28.125 40.625 28.125H31.25C30.4212 28.125 29.6263 28.4542 29.0403 29.0403C28.4542 29.6263 28.125 30.4212 28.125 31.25V34.375H25C24.5856 34.375 24.1882 34.2104 23.8951 33.9174C23.6021 33.6243 23.4375 33.2269 23.4375 32.8125V17.1875C23.4375 16.7731 23.6021 16.3757 23.8951 16.0826C24.1882 15.7896 24.5856 15.625 25 15.625H28.125V18.75C28.125 19.5788 28.4542 20.3737 29.0403 20.9597C29.6263 21.5458 30.4212 21.875 31.25 21.875ZM10.9375 28.125H4.6875V21.875H10.9375V28.125ZM31.25 31.25H40.625V40.625H31.25V31.25ZM31.25 9.375H40.625V18.75H31.25V9.375Z" fill="#1F3C88"/>
</svg>
