<svg width="50" height="50" viewBox="0 0 50 50" fill="none" xmlns="http://www.w3.org/2000/svg">
<path d="M43.2324 20.334C42.8238 20.4024 42.459 20.6303 42.2183 20.9677C41.9777 21.305 41.8809 21.7241 41.9492 22.1328C42.1079 23.0803 42.1876 24.0393 42.1875 25C42.1912 29.2074 40.6448 33.2688 37.8438 36.4082C36.1011 33.883 33.6508 31.9294 30.8008 30.793C32.3317 29.5872 33.4488 27.9344 33.9968 26.0643C34.5447 24.1942 34.4963 22.1998 33.8582 20.3585C33.2202 18.5172 32.0242 16.9205 30.4366 15.7904C28.849 14.6604 26.9487 14.0531 25 14.0531C23.0513 14.0531 21.151 14.6604 19.5634 15.7904C17.9758 16.9205 16.7798 18.5172 16.1418 20.3585C15.5037 22.1998 15.4553 24.1942 16.0033 26.0643C16.5512 27.9344 17.6684 29.5872 19.1992 30.793C16.3493 31.9294 13.8989 33.883 12.1563 36.4082C9.95846 33.9316 8.52282 30.8728 8.02198 27.5997C7.52114 24.3266 7.97643 20.9785 9.3331 17.958C10.6898 14.9374 12.8901 12.3731 15.6694 10.5733C18.4487 8.77346 21.6888 7.81478 25 7.81252C25.9607 7.81237 26.9197 7.89207 27.8672 8.0508C28.2741 8.115 28.6898 8.01595 29.024 7.7752C29.3582 7.53444 29.5839 7.17147 29.6518 6.76522C29.7198 6.35898 29.6246 5.94233 29.3869 5.6059C29.1493 5.26948 28.7884 5.0405 28.3828 4.96877C24.1396 4.25493 19.7792 4.9081 15.9313 6.83396C12.0835 8.75982 8.94722 11.8587 6.97538 15.6832C5.00355 19.5077 4.29817 23.8599 4.96111 28.1115C5.62404 32.363 7.62098 36.2938 10.6636 39.3365C13.7062 42.3791 17.637 44.376 21.8886 45.0389C26.1401 45.7019 30.4923 44.9965 34.3168 43.0247C38.1413 41.0528 41.2402 37.9166 43.1661 34.0687C45.0919 30.2208 45.7451 25.8605 45.0313 21.6172C44.9629 21.2085 44.7349 20.8437 44.3976 20.6031C44.0603 20.3624 43.6411 20.2657 43.2324 20.334ZM18.75 23.4375C18.75 22.2014 19.1166 20.993 19.8033 19.9652C20.4901 18.9374 21.4662 18.1363 22.6083 17.6633C23.7503 17.1902 25.007 17.0665 26.2193 17.3076C27.4317 17.5488 28.5454 18.144 29.4194 19.0181C30.2935 19.8922 30.8888 21.0058 31.1299 22.2182C31.3711 23.4306 31.2473 24.6873 30.7743 25.8293C30.3012 26.9713 29.5001 27.9475 28.4723 28.6342C27.4445 29.321 26.2362 29.6875 25 29.6875C23.3424 29.6875 21.7527 29.029 20.5806 27.8569C19.4085 26.6848 18.75 25.0951 18.75 23.4375ZM14.4688 38.5742C15.5991 36.8064 17.1563 35.3516 18.9967 34.3439C20.8372 33.3362 22.9017 32.8079 25 32.8079C27.0983 32.8079 29.1628 33.3362 31.0033 34.3439C32.8438 35.3516 34.4009 36.8064 35.5313 38.5742C32.5202 40.916 28.8145 42.1874 25 42.1874C21.1855 42.1874 17.4798 40.916 14.4688 38.5742ZM46.418 8.91799L40.168 15.168C40.0229 15.3133 39.8506 15.4285 39.6609 15.5071C39.4712 15.5858 39.2679 15.6263 39.0625 15.6263C38.8572 15.6263 38.6539 15.5858 38.4642 15.5071C38.2745 15.4285 38.1022 15.3133 37.9571 15.168L34.8321 12.043C34.6869 11.8978 34.5717 11.7255 34.4932 11.5358C34.4146 11.3461 34.3742 11.1428 34.3742 10.9375C34.3742 10.7322 34.4146 10.5289 34.4932 10.3392C34.5717 10.1496 34.6869 9.97723 34.8321 9.83205C35.1252 9.53887 35.5229 9.37415 35.9375 9.37415C36.1428 9.37415 36.3461 9.41459 36.5358 9.49316C36.7255 9.57172 36.8978 9.68688 37.043 9.83205L39.0625 11.8535L44.2071 6.70705C44.3522 6.56188 44.5246 6.44672 44.7142 6.36816C44.9039 6.28959 45.1072 6.24915 45.3125 6.24915C45.5178 6.24915 45.7211 6.28959 45.9108 6.36816C46.1005 6.44672 46.2728 6.56188 46.418 6.70705C46.5632 6.85223 46.6783 7.02457 46.7569 7.21425C46.8355 7.40392 46.8759 7.60722 46.8759 7.81252C46.8759 8.01783 46.8355 8.22112 46.7569 8.4108C46.6783 8.60048 46.5632 8.77282 46.418 8.91799Z" fill="#1F3C88"/>
</svg>
